PathFileType	4	(X/Y/Z)	C:/Users/beibeiliu/ov580/test_trc/User2\sequence.41_training_dense_right.trc
DataRate	CameraRate	NumFrames	NumMarkers	Units	OrigDataRate	OrigDataStartFrame	OrigNumFrames
120	120	25	19	mm	120	57	170
Frame#	Time	ThumbCMC			ThumbMCP			ThumbIP			ThumbTip			IndexMCP			IndexPIP			IndexTip			MiddleMCP			MiddlePIP			MiddleTip			RingMCP			RingPIP			RingTip			PinkyMCP			PinkyPIP			PinkyTip			BackHand1			BackHand2			BackHand3	
		X0	Y0	Z0	X1	Y1	Z1	X2	Y2	Z2	X3	Y3	Z3	X4	Y4	Z4	X5	Y5	Z5	X6	Y6	Z6	X7	Y7	Z7	X8	Y8	Z8	X9	Y9	Z9	X10	Y10	Z10	X11	Y11	Z11	X12	Y12	Z12	X13	Y13	Z13	X14	Y14	Z14	X15	Y15	Z15	X16	Y16	Z16	X17	Y17	Z17	X18	Y18	Z18	
56	0.466667	103.228	71.731	-0.436535	88.0532	93.3323	-22.8547	67.0548	96.1152	-49.4641	47.5541	88.7457	-67.1596	58.9487	61.1424	-69.0069	34.1393	68.4484	-54.9575	54.2132	67.6938	-22.6735	51.0753	42.4027	-65.5464	26.9685	49.129	-41.1087	56.5032	51.5957	-12.9294	42.947	26.2716	-53.2549	26.8038	34.5937	-25.3136	58.1417	33.9215	-8.12332	41.6847	11.6638	-41.6098	30.3355	23.3177	-11.8295	60.6274	22.9355	2.27669	100.113	7.23515	-31.3293	118.103	6.33263	-1.18453	117.581	41.4594	-20.19	
57	0.475	101.299	72.9741	0.55961	83.4339	93.3522	-24.705	59.6999	97.414	-52.2801	43.4162	90.3087	-64.4533	61.7151	63.9241	-70.4141	32.8476	66.6623	-54.8579	54.5338	65.9775	-24.3695	50.4691	41.0077	-65.503	27.1379	50.9007	-38.5868	56.6692	49.222	-13.4123	42.3999	23.2596	-53.3711	26.7846	34.7922	-27.5793	60.4706	38.2252	-10.0449	38.4217	9.1493	-42.0335	31.9481	25.6526	-15.362	63.5421	25.0892	1.77628	102.077	11.1435	-33.0827	116.958	6.29832	-4.71109	117.636	41.4225	-20.5147	
58	0.483333	98.91	72.4889	-2.20805	79.1256	93.6199	-20.3441	56.4772	99.7865	-46.9663	37.5282	89.8703	-65.0858	61.9942	62.8911	-70.2585	33.0648	69.9271	-54.6281	52.5831	67.8409	-25.5723	53.107	41.9632	-66.9455	27.2529	47.5113	-38.6065	59.5865	52.0665	-13.9938	43.5628	27.9501	-55.3263	28.8278	32.8312	-26.2943	58.8938	36.2506	-9.68093	40.8191	8.51633	-43.2964	32.2298	23.2075	-14.2025	61.2164	23.9668	2.90577	100.843	8.50045	-32.3109	119.059	5.81151	-0.661771	118.804	42.288	-18.9502	
59	0.491667	96.6671	71.082	-1.06876	75.4224	94.8429	-20.2108	51.4938	91.9215	-46.7518	33.0715	89.2236	-62.3027	62.5194	66.9826	-71.2896	33.8289	67.0961	-57.3414	52.6805	62.1884	-25.8158	49.9265	42.9734	-67.8213	27.07	48.2273	-40.8275	55.5682	48.459	-14.3304	41.839	24.3715	-55.9116	27.7347	31.8247	-27.3243	58.7123	32.1198	-9.35065	42.7156	6.57356	-44.9184	31.6725	19.788	-15.1561	59.6987	23.3654	-0.950189	99.8993	10.6887	-37.4934	119.37	6.04239	-2.36639	119.302	41.2729	-19.0594	
60	0.5	95.5317	73.758	1.43471	71.9038	88.4087	-18.9432	46.8614	93.2121	-44.3769	26.7545	88.2896	-62.8698	59.0812	63.8246	-72.5913	32.8801	67.6738	-53.0026	54.7722	64.8378	-24.1858	53.7369	43.4927	-69.2279	27.0224	50.8101	-44.9018	59.0007	46.2649	-14.5215	38.6442	23.9283	-54.8155	28.4966	31.0756	-28.0434	60.6239	31.2431	-9.91108	41.9432	5.06272	-43.9755	34.9301	23.537	-15.2664	59.4198	20.0724	1.48296	100.9	7.78707	-36.8456	118.374	4.9343	-3.99127	117.741	41.5613	-22.4865	
61	0.508333	92.8141	72.2712	-2.10609	67.2342	92.3042	-16.4482	40.5338	93.2514	-43.1862	24.1143	81.1157	-58.3391	62.1344	65.477	-70.4821	31.9925	63.9778	-53.1966	51.9482	64.4661	-25.6853	52.2483	39.31	-67.6717	25.4636	50.7401	-43.0609	53.541	50.0431	-15.1592	40.5977	26.562	-54.5357	26.4551	33.5231	-29.2493	58.2106	32.6015	-8.79403	39.5631	10.0922	-43.4571	31.4371	19.9381	-15.2671	64.4655	22.9013	0.827309	97.5461	7.63071	-36.681	115.886	4.43151	-4.49948	116.797	43.9563	-20.6304	
62	0.516667	92.3003	73.3688	-0.533853	64.3129	89.3151	-15.993	36.2101	89.4021	-43.3182	19.6052	76.8402	-57.623	59.8907	62.9639	-69.2163	31.611	64.1339	-55.3562	52.8689	64.1003	-23.846	45.9065	41.5825	-69.3239	23.8215	50.462	-43.9196	53.4031	47.3881	-13.6082	39.8199	22.8035	-53.7713	27.1038	36.2396	-25.4488	61.6672	32.8296	-8.63152	38.6357	5.70861	-42.82	32.0303	22.5147	-13.066	63.2286	23.8391	-1.12737	98.0133	8.42361	-34.0324	115.716	2.33049	-2.39154	113.348	41.6747	-21.2251	
63	0.525	89.3658	74.6395	-0.907176	60.8032	89.0121	-15.7341	32.5142	88.4064	-39.0975	15.5911	68.0124	-55.7417	56.7419	62.9277	-68.1257	28.7584	69.4008	-49.6351	53.7141	60.3046	-23.5888	47.1577	40.8777	-67.3373	21.873	48.1943	-45.44	51.2515	46.4427	-11.0405	39.2607	22.1796	-53.3972	24.6327	31.3521	-26.4223	55.5594	32.4269	-8.6238	38.2998	6.04331	-42.2817	29.9526	22.2834	-16.3554	58.6256	23.3471	1.53944	97.2565	8.85681	-37.3009	114.958	5.14869	-1.58384	112.379	44.9929	-20.6094	
64	0.533333	90.2564	73.6102	5.53006	58.2213	91.5554	-15.3003	30.0546	88.5829	-33.8193	16.8896	63.8141	-50.4483	57.4268	68.1982	-67.2624	27.9756	69.3945	-46.68	52.4399	62.1975	-21.9197	46.7528	45.7614	-66.6333	20.6372	47.1762	-42.3472	45.1269	50.8118	-10.4898	38.1581	24.3058	-53.1131	23.5579	32.1286	-22.3533	52.8554	35.6615	-7.42321	37.9826	9.1372	-41.6831	29.0292	22.6874	-12.3578	56.5267	22.4989	4.48369	95.5244	9.11144	-36.0299	114.951	5.83488	-2.23792	112.201	43.7976	-17.7243	
65	0.541667	89.7841	76.1643	5.18746	60.3851	90.1896	-10.9703	32.0974	89.3672	-32.5921	17.9399	66.7763	-45.5683	56.6418	66.5361	-65.7149	27.876	64.4197	-47.5915	48.4853	62.6592	-20.9258	42.6796	41.7469	-65.6646	19.6682	47.7179	-41.5631	41.9292	51.8171	-9.61566	36.2398	27.6572	-52.1464	22.7121	35.669	-25.8263	54.3748	38.0581	-6.9875	36.4086	10.5257	-40.1346	28.7956	22.1241	-9.23154	55.3052	24.7547	3.07049	96.883	10.0741	-31.7616	114.478	9.03804	1.09242	112.858	43.1985	-19.7887	
66	0.55	92.2558	78.0003	5.75119	65.4087	94.4665	-8.97009	36.2367	94.2316	-34.987	23.0267	71.8837	-45.6498	53.29	65.1252	-64.8065	26.8287	69.479	-49.7562	51.0886	66.3869	-18.5727	46.9311	43.3262	-64.0861	19.3115	49.0441	-40.0483	45.5913	50.5208	-6.86831	33.9475	26.1565	-52.1472	22.0856	34.5623	-23.2372	51.2307	37.8843	-6.05868	37.0991	9.57931	-40.882	25.8437	22.1542	-14.2501	54.782	22.1655	5.64102	96.1174	8.98356	-34.2564	113.111	7.96857	-0.652868	112.68	44.5622	-15.5513	
67	0.558333	97.6021	79.4668	6.72964	74.3421	98.5135	-10.2091	47.0487	96.6441	-34.7922	29.2798	81.3171	-46.7728	54.6327	64.6689	-64.7596	28.0234	69.6246	-48.1016	49.9745	64.8494	-19.2258	44.1708	47.1092	-63.7918	19.7704	48.9611	-40.6865	43.2526	50.383	-7.88457	39.2132	23.9722	-52.7368	20.679	34.7279	-27.9093	49.7185	37.2443	-5.85353	37.513	7.01978	-39.8883	27.2837	25.8277	-11.289	52.8725	24.1152	5.30043	97.7822	11.001	-29.9839	116.044	5.94535	2.05518	113.707	47.4027	-17.7689	
68	0.566667	102.217	77.9948	6.81377	86.3057	99.2725	-10.366	58.4225	106.784	-37.7235	39.9065	85.9851	-50.2694	58.4672	63.8964	-64.0072	28.7579	66.686	-51.4204	48.193	69.2802	-20.2138	44.0665	43.1788	-64.8203	21.1271	48.9681	-41.2768	45.8998	50.901	-8.7345	37.5938	23.7347	-51.9049	21.6957	36.6093	-28.0346	53.0868	39.5218	-5.26901	37.6641	9.95056	-39.239	26.3572	24.8716	-15.3271	56.1742	26.7412	3.7589	98.8027	12.4401	-29.0663	115.101	7.25545	-0.434275	113.895	42.1292	-17.7427	
69	0.575	104.599	72.8165	2.49529	95.2418	97.5248	-13.7603	69.0953	103.015	-43.1905	49.7961	86.1013	-50.6193	56.7217	66.6911	-66.5855	30.1441	69.9872	-51.3132	48.8334	70.1601	-20.8092	47.8987	44.6855	-64.9946	22.3721	52.9282	-41.7072	49.0218	48.9654	-9.92574	40.0591	24.5097	-51.9705	22.7696	37.7316	-29.3926	52.0589	35.3849	-4.80329	37.7677	13.0839	-39.1271	25.1011	22.5601	-12.4003	53.1075	24.455	4.03889	97.4424	8.65516	-31.1896	117.919	9.93534	2.43471	116.284	44.4716	-13.749	
70	0.583333	107.128	71.5303	5.10575	98.9706	95.5107	-17.0637	76.0884	104.554	-45.6947	54.8705	82.8046	-54.4563	56.113	62.3248	-67.1498	31.1274	69.8831	-51.8223	53.8897	72.0197	-21.016	48.5263	40.7079	-64.6185	23.1851	53.7998	-43.765	47.8709	49.4784	-10.9623	40.9384	26.9753	-51.7483	22.309	38.3649	-29.2539	52.5365	40.542	-6.55966	37.3586	12.9828	-39.5158	28.0811	26.1502	-10.2421	54.2248	28.129	2.32467	95.6831	8.26817	-30.8293	114.897	7.69882	-0.954624	117.552	41.3096	-17.4582	
71	0.591667	107.931	71.5064	3.0975	103.878	97.827	-17.8295	78.8226	99.5399	-46.5465	56.8833	80.5552	-57.1345	59.6684	63.7841	-67.8997	32.1211	66.7645	-51.3433	50.6162	71.2192	-23.4055	47.2542	45.8201	-65.4974	23.3293	53.6447	-43.414	52.9608	53.9834	-11.824	39.0608	27.1167	-51.8937	22.7423	34.3084	-27.9983	56.1934	38.2596	-6.8537	39.3753	9.79613	-38.6836	27.6639	27.2076	-14.6048	53.9954	26.2708	0.808021	98.8631	6.88782	-29.4074	117.044	7.39143	3.73839	116.574	41.6895	-13.1175	
72	0.6	108.803	70.5612	5.34741	103.018	95.0205	-21.4253	81.0965	99.5453	-49.1466	59.3891	82.6434	-58.9483	62.1739	61.7586	-67.6042	32.1547	67.791	-50.7037	54.7691	67.2534	-23.2204	48.4458	43.9857	-65.3529	23.7964	50.4399	-40.7182	50.8662	53.0891	-12.8772	41.4192	26.8136	-53.2346	25.4149	39.633	-27.5451	55.8999	35.3901	-7.54601	41.1982	11.0535	-40.4084	31.2522	28.4057	-12.534	60.2159	23.735	1.93591	98.8444	7.57946	-30.4519	114.829	5.13145	-2.25376	116.107	43.7635	-18.9173	
73	0.608333	107.029	71.3567	0.17503	102.016	97.7591	-21.9005	79.6667	99.9118	-49.7982	59.8074	86.1971	-64.2405	60.7817	63.9507	-68.9532	33.159	72.8519	-52.7372	52.313	69.9387	-23.2677	49.3024	45.0037	-65.8747	25.2628	51.7143	-43.2409	52.4	53.3091	-12.8956	42.2639	27.8497	-53.4363	24.5486	36.86	-25.491	57.4579	36.5577	-8.49605	39.8833	10.3834	-39.5094	30.1644	25.5086	-10.7573	62.8283	24.5571	1.65952	96.943	10.7393	-32.3722	115.664	7.46346	0.385908	116.847	43.4719	-16.2744	
74	0.616667	103.818	72.012	0.78797	94.5508	93.6274	-24.0935	74.4386	98.7797	-50.1106	54.4695	85.6385	-66.2988	60.1936	63.631	-68.9244	31.9664	70.4388	-51.5811	52.9082	66.1716	-23.7427	48.3043	44.9043	-65.1816	25.3466	50.3805	-39.1379	52.5781	50.7455	-11.39	41.8322	26.2209	-53.7939	27.2807	37.068	-23.3595	56.3089	37.2522	-8.41652	39.6897	10.3079	-40.2507	32.0861	27.3513	-10.161	63.6357	26.3769	-1.36175	96.192	7.76965	-34.1351	115.735	7.47309	0.356349	115.869	43.0808	-21.1815	
75	0.625	101.937	73.5136	-0.685339	89.613	96.375	-21.3919	67.3238	101.05	-48.4573	46.7142	90.038	-70.6645	56.9754	64.0223	-69.1537	31.8038	69.6224	-52.0076	52.5576	71.104	-23.1523	50.8433	46.0316	-65.3905	25.181	54.1924	-37.8532	57.4369	52.5881	-10.9996	36.4366	27.449	-51.7248	25.1978	38.4654	-27.8109	57.8802	37.029	-9.33589	40.0173	9.86656	-40.699	29.1047	24.9798	-12.7122	61.6543	25.4534	1.53521	96.3207	7.75778	-34.5227	114.536	7.6387	-0.945705	117.134	44.8483	-22.05	
76	0.633333	100.156	73.5206	1.07361	82.0092	95.1485	-23.7148	58.697	98.9857	-46.7714	38.6002	95.6236	-66.6583	60.2986	61.9465	-69.231	31.0864	72.6248	-54.1695	54.4737	68.0583	-22.3617	48.4197	47.0077	-65.6104	24.2611	52.3814	-37.732	53.4922	53.5428	-11.7191	40.4559	29.1635	-53.0205	26.4202	38.3237	-23.6643	57.9461	37.1962	-8.93578	40.4636	12.4117	-41.3972	29.4775	26.2943	-13.6347	61.9744	28.6004	0.61843	98.0826	10.7538	-31.18	115.32	5.11944	-5.44192	117.462	42.8494	-17.2449	
77	0.641667	97.8547	74.7598	0.415751	75.6259	91.9606	-17.361	51.9222	98.3297	-42.9929	30.6737	94.0205	-62.1425	56.8603	68.6977	-71.3029	31.4792	71.3115	-53.1912	52.01	66.2202	-23.3789	47.5101	46.4375	-65.9133	24.9081	54.9548	-41.2304	53.4312	49.8505	-11.7742	35.0866	27.3811	-52.2422	26.6143	39.4537	-27.4634	56.9433	39.5989	-9.02994	38.412	9.09691	-41.2765	30.1061	23.9254	-11.4772	62.1605	23.5278	1.49469	96.4793	11.2059	-35.013	113.238	5.33727	-5.89391	114.757	41.2909	-19.8789	
78	0.65	96.3564	74.918	2.06297	71.4677	93.6007	-14.8482	43.9235	97.3291	-45.5444	25.9572	85.7841	-61.0249	60.6107	66.1012	-68.9119	31.2968	72.8249	-53.8221	52.2455	65.0252	-23.9677	51.9027	45.9729	-67.3849	23.7404	49.4094	-42.705	51.3936	49.6161	-12.9629	37.8714	26.8664	-53.1085	25.8281	34.9773	-24.547	58.3387	35.9786	-9.33713	36.8346	11.457	-41.6806	28.7488	22.039	-13.4557	58.6896	26.205	1.61804	99.4881	11.5073	-35.7934	117.947	9.01727	-4.24405	114.857	42.8856	-20.9046	
79	0.658333	92.4563	74.9457	0.302036	66.7989	92.9603	-16.5346	41.0042	93.0614	-37.0782	22.7161	80.9194	-57.0411	55.993	70.3824	-69.9131	30.3955	67.8994	-51.2781	52.9459	67.3614	-23.9529	50.8563	47.7247	-68.4083	23.3119	51.242	-44.8636	53.7498	51.3676	-12.9501	41.6299	28.3927	-55.1938	25.5077	37.3173	-26.627	59.0297	35.5533	-9.70793	36.5392	9.97554	-43.3334	30.4326	26.2947	-16.3073	59.4239	24.1387	3.18203	99.6098	11.77	-34.8494	116.28	10.178	-6.55215	114.33	45.0031	-18.5239	
80	0.666667	91.9017	75.0142	1.30026	62.4698	92.2199	-17.7252	35.6645	91.9581	-38.7986	16.2272	79.7977	-56.9354	54.5563	67.0652	-70.6501	29.2266	70.0687	-51.1022	52.5067	64.9778	-23.3507	47.5872	46.0848	-67.9777	21.3401	49.0613	-43.6587	48.0474	51.8657	-12.9454	39.8228	27.8424	-56.0125	24.2662	36.9546	-29.4895	55.8562	37.6652	-8.85481	38.3224	12.597	-44.6194	29.3898	24.3331	-13.1899	60.3658	23.3204	1.49122	98.6957	13.5056	-35.217	114.059	9.49378	-5.52765	113.064	45.4539	-18.4268	
